<svg width="14" height="14" viewBox="0 0 14 14" fill="none" xmlns="http://www.w3.org/2000/svg">
<g id="icon-refresh-mono">
<path id="Vector" fill-rule="evenodd" clip-rule="evenodd" d="M12.2308 7.2112C12.0479 7.17936 11.8599 7.22145 11.7081 7.32821C11.5562 7.43498 11.453 7.59768 11.4211 7.78053C11.2395 8.82398 10.6949 9.76966 9.88357 10.4505C9.07222 11.1313 8.04635 11.5034 6.98721 11.501C4.50571 11.501 2.48679 9.48211 2.48679 7.00003C2.48679 4.51853 4.50571 2.49961 6.98721 2.49961C8.11538 2.49961 9.17646 2.91611 10.006 3.66861L9.42729 4.24728C9.35159 4.3227 9.29829 4.41764 9.27333 4.52154C9.24837 4.62544 9.25273 4.73423 9.28593 4.8358C9.31912 4.93738 9.37984 5.02775 9.46134 5.09686C9.54284 5.16598 9.64191 5.21112 9.74754 5.22728L12.2045 5.60645C12.2943 5.62028 12.3861 5.61276 12.4724 5.58447C12.5587 5.55619 12.6371 5.50796 12.7012 5.44368C12.7654 5.37941 12.8135 5.3009 12.8416 5.21455C12.8698 5.1282 12.8771 5.03643 12.8631 4.9467L12.4845 2.49028C12.4683 2.38472 12.4231 2.28573 12.354 2.2043C12.2849 2.12286 12.1946 2.06216 12.0931 2.02893C11.9916 1.9957 11.8828 1.99124 11.7789 2.01604C11.6751 2.04085 11.5801 2.09395 11.5045 2.16945L10.9959 2.6787C9.90871 1.66231 8.47549 1.09774 6.98721 1.09961C3.73396 1.09961 1.08679 3.74678 1.08679 7.00003C1.08679 10.2539 3.73396 12.9004 6.98721 12.9004C9.86188 12.9004 12.306 10.8483 12.8001 8.02086C12.832 7.838 12.7899 7.64998 12.6831 7.49814C12.5763 7.34631 12.4136 7.24309 12.2308 7.2112Z" fill="#4C4C4C"/>
</g>
</svg>
