<svg width="65" height="64" viewBox="0 0 65 64" fill="none" xmlns="http://www.w3.org/2000/svg">
<path fill-rule="evenodd" clip-rule="evenodd" d="M32.5002 51.1757C32.08 51.1757 31.6639 51.0929 31.2757 50.9321C30.8874 50.7713 30.5346 50.5356 30.2375 50.2384C29.9404 49.9413 29.7046 49.5885 29.5438 49.2003C29.383 48.812 29.3002 48.3959 29.3002 47.9757C29.3002 47.5555 29.383 47.1394 29.5438 46.7511C29.7046 46.3629 29.9404 46.0101 30.2375 45.713C30.5346 45.4158 30.8874 45.1801 31.2757 45.0193C31.6639 44.8585 32.08 44.7757 32.5002 44.7757C33.3489 44.7757 34.1629 45.1128 34.763 45.713C35.3631 46.3131 35.7002 47.127 35.7002 47.9757C35.7002 48.8244 35.3631 49.6383 34.763 50.2384C34.1629 50.8386 33.3489 51.1757 32.5002 51.1757ZM29.8336 24.5544C29.8336 23.8471 30.1145 23.1689 30.6146 22.6688C31.1147 22.1687 31.793 21.8877 32.5002 21.8877C33.2075 21.8877 33.8858 22.1687 34.3859 22.6688C34.886 23.1689 35.1669 23.8471 35.1669 24.5544V37.8877C35.1669 38.595 34.886 39.2732 34.3859 39.7733C33.8858 40.2734 33.2075 40.5544 32.5002 40.5544C31.793 40.5544 31.1147 40.2734 30.6146 39.7733C30.1145 39.2732 29.8336 38.595 29.8336 37.8877V24.5544ZM61.6042 50.173L38.0442 9.36504C35.5802 5.09837 29.4202 5.09837 26.9562 9.36504L3.39624 50.173C0.934905 54.4397 4.00957 59.773 8.94024 59.773H56.0602C60.9882 59.773 64.0656 54.4397 61.6042 50.173Z" fill="#E5E5E5"/>
</svg>
