<svg width="23" height="23" viewBox="0 0 23 23" fill="none" xmlns="http://www.w3.org/2000/svg">
<g id="icon-x-mono">
<path id="Vector" fill-rule="evenodd" clip-rule="evenodd" d="M13.2393 11.5006L18.6548 6.08502C18.7617 5.97824 18.8464 5.85145 18.9043 5.71191C18.9621 5.57236 18.9919 5.42279 18.992 5.27173C18.992 5.12067 18.9623 4.97108 18.9045 4.83151C18.8468 4.69193 18.7621 4.5651 18.6553 4.45825C18.5485 4.3514 18.4217 4.26663 18.2822 4.20878C18.1426 4.15094 17.9931 4.12114 17.842 4.12109C17.6909 4.12105 17.5414 4.15076 17.4018 4.20853C17.2622 4.26629 17.1354 4.35099 17.0285 4.45777L11.613 9.87427L6.19647 4.45777C5.97832 4.254 5.68952 4.14297 5.39105 4.14811C5.09258 4.15324 4.80777 4.27414 4.59675 4.48528C4.38573 4.69643 4.265 4.9813 4.26004 5.27978C4.25508 5.57826 4.36629 5.86698 4.57018 6.08502L9.98668 11.5006L4.57018 16.9161C4.4101 17.0773 4.30125 17.2822 4.25733 17.5051C4.21341 17.728 4.23637 17.9589 4.32333 18.1688C4.41029 18.3786 4.55737 18.5581 4.74606 18.6846C4.93475 18.8111 5.15663 18.879 5.38381 18.8797C5.67801 18.8797 5.97222 18.7676 6.19647 18.5434L11.613 13.1269L17.0285 18.5434C17.1352 18.6504 17.2619 18.7353 17.4014 18.7932C17.541 18.8511 17.6906 18.8809 17.8417 18.8809C17.9927 18.8809 18.1423 18.8511 18.2819 18.7932C18.4214 18.7353 18.5481 18.6504 18.6548 18.5434C18.7617 18.4365 18.8466 18.3097 18.9044 18.1701C18.9623 18.0305 18.9921 17.8809 18.9921 17.7297C18.9921 17.5786 18.9623 17.429 18.9044 17.2893C18.8466 17.1497 18.7617 17.0229 18.6548 16.9161L13.2393 11.5006Z" fill="#333333"/>
</g>
</svg>
